<?xml version="1.0" encoding="UTF-8"?>
<svg xmlns="http://www.w3.org/2000/svg" version="1.1" viewBox="0 0 1116 396">
  <defs>
    <style>
      .cls-1 {
        fill: #d50032;
      }
    </style>
  </defs>
  <!-- Generator: Adobe Illustrator 28.6.0, SVG Export Plug-In . SVG Version: 1.2.0 Build 709)  -->
  <g>
    <g id="Layer_1">
      <g id="re-drawn_original_flame">
        <g>
          <g>
            <path d="M101.39,349.58l-27.12-32.58v32.58s-20.99,0-20.99,0v-61.86s19.52,0,19.52,0l27.12,32.58v-32.58s20.99,0,20.99,0v61.86s-19.52,0-19.52,0Z"/>
            <path d="M153.75,329.73v19.84s-22.29,0-22.29,0v-61.86s53.21,0,53.21,0v16.46s-30.92,0-30.92,0v9.1s29.2,0,29.2,0v16.46s-29.2,0-29.2,0Z"/>
            <path d="M193.57,349.58v-61.86s31.18,0,31.18,0c9.79,0,17.09,1.84,21.9,5.5,4.81,3.67,7.21,9.23,7.21,16.68s-2.48,13.17-7.43,16.81c-4.95,3.64-12.53,5.46-22.72,5.46h-8.73s0,17.42,0,17.42h-21.42ZM223.11,315.96c3.34,0,5.7-.46,7.08-1.39,1.38-.92,2.07-2.48,2.07-4.68,0-2.14-.71-3.67-2.12-4.59-1.41-.92-3.7-1.39-6.87-1.39h-8.29s0,12.04,0,12.04h8.12Z"/>
            <path d="M302.49,349.58l-3.28-9.1h-25.83s-3.19,9.1-3.19,9.1h-22.46s25.57-61.86,25.57-61.86h26.61s25.57,61.86,25.57,61.86h-22.98ZM286.34,304.35l-7.17,19.75h14.25s-7.08-19.75-7.08-19.75Z"/>
          </g>
          <g>
            <path d="M323.25,292.87l-2.31-3.9h-2.65s0,3.9,0,3.9h-3.19s0-11.52,0-11.52h5.89c3.43,0,5.15,1.27,5.15,3.82,0,.76-.17,1.4-.5,1.91-.33.51-.84.92-1.53,1.24l2.82,4.55h-3.68ZM320.78,286.52c.73,0,1.26-.11,1.6-.32.33-.22.5-.57.5-1.05s-.16-.82-.48-1.03c-.32-.21-.85-.31-1.59-.31h-2.52s0,2.71,0,2.71h2.48Z"/>
            <path d="M320.23,299.32c-6.7,0-12.14-5.45-12.14-12.14s5.45-12.14,12.14-12.14c6.7,0,12.14,5.45,12.14,12.14,0,6.69-5.45,12.14-12.14,12.14ZM320.23,276.6c-5.83,0-10.58,4.75-10.58,10.58,0,5.83,4.75,10.58,10.58,10.58,5.83,0,10.58-4.74,10.58-10.58,0-5.83-4.75-10.58-10.58-10.58Z"/>
          </g>
        </g>
        <g>
          <path d="M296.45,54.65H76.44c-12.9,0-23.39,10.49-23.39,23.4v174.41c0,12.9,10.49,23.39,23.39,23.39h49.54v-31.75h-31.3c-5.45,0-9.88-4.43-9.88-9.88V96.51c0-5.57,4.53-10.11,10.11-10.11h182.78c5.73,0,10.4,4.67,10.4,10.4v137.67c0,5.3-4.31,9.61-9.61,9.61h-31.57v31.75h49.54c12.9,0,23.39-10.49,23.39-23.39V78.05c0-12.9-10.49-23.4-23.39-23.4Z"/>
          <path class="cls-1" d="M187.46,97.54c.12-.48.82-.44.88.06.67,5.75,1.44,18.02,13.06,31.3,12.56,14.37,12.27,28.41,11.21,35.9-.29,2.03-1.18,7.89-1.6,10.73-.07.44-.67.52-.85.11-1.16-2.65-3.8-8.28-6.69-11.82-7.75-9.49-17.19-17.19-19.39-35.85-1.24-10.55,1.97-24.85,3.39-30.43ZM243.47,212.67c5.15-27.57-19.1-65.95-26-76.12-.29-.42-.93-.1-.78.39,9.57,30.51-6.54,52.21-9.69,56.06-.21.26-.61.15-.68-.17-4.29-20.6-21.45-38.77-29.44-49.08-6.23-8.03-7.03-16.45-6.83-20.05.02-.43-.55-.58-.75-.2-1.88,3.57-5.6,13.5-.73,30.15,5.98,20.46,3.22,29.21,1.99,31.74-.16.34-.66.3-.79-.06-5.74-15.79-12.22-26.65-17.61-33.82-4.62-6.15-8.42-9.57-10.25-11.04-.33-.27-.82.05-.7.46,1.28,4.06,9.21,13.92-7.93,58.1-9.89,25.49,9.24,45.81,13.48,49.32.29.24.7-.02.63-.38-2.04-11.66,1.27-20.88,2.73-24.21.18-.41.77-.31.83.13,4.11,29.26,20.84,43.3,24.12,45.8.25.19.62.03.67-.28,1.99-12.46,5.4-16.58,9.5-26.08,5.21-12.06,4.24-25.66,3.47-31.49-.07-.51.63-.7.85-.24,17.63,36.81,6.48,60.4,3.63,65.42-.19.33.21.8.51.55,26.09-21.45,33.99-50.85,35.71-58.83.07-.31.52-.27.54.05.82,13.49-1.24,23.82-2.29,27.57-.1.38.37.63.63.34,3.13-3.52,11.63-15.13,15.17-34.05Z"/>
        </g>
      </g>
      <g>
        <path class="cls-1" d="M383.44,165.54h35.91c24.14,0,39.34,9.83,39.34,36.36,0,13.71-6.26,24.29-16.69,29.2l20.12,44.7h-28.61l-16.99-37.55h-6.11v37.55h-26.97v-110.26ZM418.61,217.39c9.24,0,13.71-4.02,13.71-14.9s-4.47-14.01-13.71-14.01h-8.2v28.91h8.2Z"/>
        <path class="cls-1" d="M473.59,165.54h66.6v23.24h-38.89v19.22h27.71v21.75h-27.71v23.54h40.68v22.5h-68.39v-110.26Z"/>
        <path class="cls-1" d="M547.64,251.36l22.2-11.32c4.62,8.2,11.92,15.94,21.61,15.94,7.75,0,11.62-3.73,11.62-9.54,0-7.3-8.2-10.73-18.03-14.6-14.75-5.96-33.38-12.81-33.38-36.06,0-19.52,15.79-32.33,37.55-32.33,19.67,0,31.89,10.58,39.19,25.33l-21.31,11.77c-4.77-9.24-10.58-14.45-18.48-14.45-6.56,0-9.83,3.58-9.83,8.34,0,6.7,7.15,10.28,16.24,14.15,15.05,6.26,35.16,13.26,35.16,36.65,0,16.99-12.81,32.63-38.74,32.63-23.24,0-36.06-11.18-43.81-26.52Z"/>
        <path class="cls-1" d="M642.7,165.54h66.6v23.24h-38.89v19.22h27.71v21.75h-27.71v23.54h40.68v22.5h-68.39v-110.26Z"/>
        <path class="cls-1" d="M741.48,275.8h-25.78l32.18-110.71h26.97l32.18,110.71h-27.86l-4.62-18.63h-28.31l-4.77,18.63ZM767.41,227.52c-2.68-10.88-4.92-18.03-6.56-28.16h-.3c-1.64,10.28-4.02,17.14-6.85,28.16l-2.09,8.34h17.73l-1.94-8.34Z"/>
        <path class="cls-1" d="M815.68,165.54h35.91c24.14,0,39.34,9.83,39.34,36.36,0,13.71-6.26,24.29-16.69,29.2l20.12,44.7h-28.61l-16.99-37.55h-6.11v37.55h-26.97v-110.26ZM850.85,217.39c9.24,0,13.71-4.02,13.71-14.9s-4.47-14.01-13.71-14.01h-8.2v28.91h8.2Z"/>
        <path class="cls-1" d="M900.46,220.67c0-40.68,18.77-57.22,44.7-57.22s36.21,15.05,39.19,39.49l-26.08,4.62c-2.09-14.15-5.21-20.56-14.01-20.56-11.32,0-15.94,11.18-15.94,33.67s4.92,34.42,16.24,34.42c8.94,0,12.52-5.81,14.9-22.05l26.08,4.17c-3.87,22.65-14.16,40.53-41.12,40.53s-43.96-16.39-43.96-57.07Z"/>
        <path class="cls-1" d="M996.42,165.54h27.71v41.57h26.97v-41.57h27.71v110.26h-27.71v-46.04h-26.97v46.04h-27.71v-110.26Z"/>
      </g>
    </g>
  </g>
</svg>